<svg width="48" height="48" viewBox="0 0 48 48" fill="none" xmlns="http://www.w3.org/2000/svg">
<path d="M10 12C10 10.9391 10.4214 9.92172 11.1716 9.17157C11.9217 8.42143 12.9391 8 14 8H34C35.0609 8 36.0783 8.42143 36.8284 9.17157C37.5786 9.92172 38 10.9391 38 12V14C38 14.5304 37.7893 15.0391 37.4142 15.4142C37.0391 15.7893 36.5304 16 36 16C35.4696 16 34.9609 15.7893 34.5858 15.4142C34.2107 15.0391 34 14.5304 34 14V12H26V36H28C28.5304 36 29.0391 36.2107 29.4142 36.5858C29.7893 36.9609 30 37.4696 30 38C30 38.5304 29.7893 39.0391 29.4142 39.4142C29.0391 39.7893 28.5304 40 28 40H20C19.4696 40 18.9609 39.7893 18.5858 39.4142C18.2107 39.0391 18 38.5304 18 38C18 37.4696 18.2107 36.9609 18.5858 36.5858C18.9609 36.2107 19.4696 36 20 36H22V12H14V14C14 14.5304 13.7893 15.0391 13.4142 15.4142C13.0391 15.7893 12.5304 16 12 16C11.4696 16 10.9609 15.7893 10.5858 15.4142C10.2107 15.0391 10 14.5304 10 14V12Z" fill="white"/>
</svg>
