<svg width="24" height="24" viewBox="0 0 24 24" fill="none" xmlns="http://www.w3.org/2000/svg">
<path opacity="0.3" d="M15.5 13C19.6421 13 23 16.3579 23 20.5C23 21.3284 22.3284 22 21.5 22H3.5C2.67157 22 2 21.3284 2 20.5C2 16.3579 5.35786 13 9.5 13H15.5ZM9.5 15C6.63098 15 4.27508 17.1968 4.02246 20H20.9775C20.7249 17.1968 18.369 15 15.5 15H9.5ZM12.5 2C14.9853 2 17 4.01472 17 6.5C17 8.98528 14.9853 11 12.5 11C10.0147 11 8 8.98528 8 6.5C8 4.01472 10.0147 2 12.5 2ZM12.5 4C11.1193 4 10 5.11929 10 6.5C10 7.88071 11.1193 9 12.5 9C13.8807 9 15 7.88071 15 6.5C15 5.11929 13.8807 4 12.5 4Z" fill="white"/>
</svg>
