<svg width="24" height="24" viewBox="0 0 24 24" fill="none" xmlns="http://www.w3.org/2000/svg">
<mask id="path-1-inside-1_2080_558" fill="white">
<path d="M10.5694 2.43099C11.3493 1.65112 12.6131 1.64977 13.3946 2.42806L20.1358 9.14193C20.3101 9.31552 20.4441 9.51428 20.5411 9.72591C20.8273 10.0718 21 10.5153 21.0001 10.9993V19.9993C21 21.1038 20.1046 21.9993 19.0001 21.9993H5.00006C3.89555 21.9993 3.00015 21.1038 3.00006 19.9993V10.9993C3.00014 10.524 3.16641 10.0876 3.44342 9.74447C3.54041 9.52672 3.67735 9.32208 3.85553 9.14388L10.5694 2.43099Z"/>
</mask>
<path d="M10.5694 2.43099L11.9835 3.84531L11.9836 3.84524L10.5694 2.43099ZM13.3946 2.42806L14.8059 1.01097L14.8059 1.01093L13.3946 2.42806ZM20.1358 9.14193L21.5472 7.72495L21.5471 7.72484L20.1358 9.14193ZM20.5411 9.72591L18.7229 10.5591L18.8325 10.7982L19.0002 11.0009L20.5411 9.72591ZM21.0001 10.9993H23.0001V10.999L21.0001 10.9993ZM21.0001 19.9993L23.0001 19.9995V19.9993H21.0001ZM19.0001 21.9993V23.9993V21.9993ZM3.00006 19.9993H1.00006V19.9995L3.00006 19.9993ZM3.00006 10.9993L1.00006 10.999V10.9993H3.00006ZM3.44342 9.74447L4.99961 11.0008L5.16394 10.7972L5.27038 10.5582L3.44342 9.74447ZM3.85553 9.14388L2.44142 7.72956L2.44123 7.72975L3.85553 9.14388ZM11.9836 3.84524L11.9833 3.84519L14.8059 1.01093C13.2428 -0.545715 10.715 -0.542929 9.15522 1.01674L11.9836 3.84524ZM11.9833 3.84514L18.7245 10.559L21.5471 7.72484L14.8059 1.01097L11.9833 3.84514ZM18.7244 10.5589C18.7224 10.557 18.7211 10.5552 18.7205 10.5544C18.72 10.5536 18.721 10.555 18.7229 10.5591L22.3593 8.89271C22.1687 8.47683 21.9008 8.07714 21.5472 7.72495L18.7244 10.5589ZM19.0002 11.0009C19.0017 11.0028 19.0015 11.0032 19.0009 11.0014C19.0005 11.0005 19.0002 10.9994 19.0001 10.9985C18.9999 10.9976 19.0001 10.9978 19.0001 10.9997L23.0001 10.999C22.9999 10.0304 22.6524 9.14033 22.082 8.45092L19.0002 11.0009ZM19.0001 10.9993V19.9993H23.0001V10.9993H19.0001ZM19.0001 19.9992V19.9993V23.9993C21.2093 23.9993 22.9999 22.2083 23.0001 19.9995L19.0001 19.9992ZM19.0001 19.9993H5.00006V23.9993H19.0001V19.9993ZM5.00006 19.9993V19.9992L1.00006 19.9995C1.00024 22.2083 2.79082 23.9993 5.00006 23.9993V19.9993ZM5.00006 19.9993V10.9993H1.00006V19.9993H5.00006ZM5.00006 10.9997C5.00006 10.9976 5.00022 10.9972 5.00009 10.998C4.99996 10.9987 4.99973 10.9996 4.9994 11.0005C4.99876 11.0023 4.99847 11.0022 4.99961 11.0008L1.88723 8.48817C1.33437 9.17301 1.00023 10.049 1.00006 10.999L5.00006 10.9997ZM5.27038 10.5582L5.26983 10.558L2.44123 7.72975C2.08279 8.08823 1.80891 8.49863 1.61646 8.9307L5.27038 10.5582ZM5.26964 10.5582L11.9835 3.84531L9.15529 1.01667L2.44142 7.72956L5.26964 10.5582Z" fill="white" mask="url(#path-1-inside-1_2080_558)"/>
<rect x="11" y="16" width="2" height="6" rx="1" fill="white"/>
</svg>
