<svg width="22" height="22" viewBox="0 0 22 22" fill="none" xmlns="http://www.w3.org/2000/svg">
<path d="M8.88342 6.22598C8.73859 6.3699 8.66159 6.53123 8.66159 6.69165C8.66159 6.85207 8.73767 7.0134 8.88342 7.15823L12.4584 10.7332L12.5886 10.8634L12.4584 10.9936L8.97509 14.4769C8.83026 14.6217 8.75326 14.7822 8.75326 14.9426C8.75326 15.103 8.82934 15.2643 8.97509 15.4092L8.99617 15.4293L9.00901 15.4559C9.05851 15.5558 9.25376 15.6292 9.39492 15.6292C9.52692 15.6292 9.66809 15.5549 9.81567 15.4082L13.9398 11.2832C14.0846 11.1384 14.1616 10.9771 14.1616 10.8167C14.1616 10.6562 14.0846 10.4949 13.9398 10.351L9.81476 6.22598C9.66992 6.08115 9.50951 6.00415 9.34909 6.00415C9.18867 6.00415 9.02734 6.08115 8.88251 6.22598L8.88342 6.22598Z" fill="#BBBBBB"/>
</svg>
