<svg width="24" height="24" viewBox="0 0 24 24" fill="none" xmlns="http://www.w3.org/2000/svg">
<g opacity="0.3">
<path d="M3.34 7.00001C6.101 2.21701 12.217 0.580009 17 3.34001C18.8954 4.43358 20.3797 6.11866 21.2254 8.13685C22.0711 10.155 22.2315 12.3949 21.682 14.513C21.465 15.345 20.46 15.587 19.874 15.044L19.79 14.957L17.538 12.37C16.853 11.583 17.546 10.398 18.535 10.56L18.645 10.583L19.927 10.918C19.6807 9.11766 18.8288 7.45481 17.5115 6.20313C16.1942 4.95144 14.4901 4.18549 12.6795 4.03134C10.8689 3.87719 9.05983 4.34402 7.54992 5.355C6.04001 6.36598 4.91926 7.86088 4.37212 9.59367C3.82498 11.3265 3.88405 13.1939 4.53961 14.8886C5.19516 16.5834 6.40815 18.0045 7.97894 18.918C9.54973 19.8315 11.3847 20.1831 13.1819 19.9148C14.9791 19.6466 16.6315 18.7744 17.867 17.442C17.9556 17.3435 18.0629 17.2635 18.1827 17.2068C18.3024 17.1501 18.4323 17.1177 18.5647 17.1116C18.697 17.1055 18.8293 17.1258 18.9538 17.1713C19.0783 17.2167 19.1925 17.2865 19.2897 17.3765C19.387 17.4665 19.4655 17.5749 19.5205 17.6955C19.5755 17.816 19.606 17.9463 19.6102 18.0788C19.6144 18.2112 19.5922 18.3432 19.545 18.467C19.4977 18.5908 19.4264 18.704 19.335 18.8C16.233 22.151 11.123 23.04 7 20.66C2.217 17.9 0.580001 11.783 3.34 7.00001ZM12 7.00001C12.2449 7.00004 12.4813 7.08996 12.6644 7.25272C12.8474 7.41548 12.9643 7.63976 12.993 7.88301L13 8.00001V11.586L14.707 13.293C14.8863 13.473 14.9905 13.7144 14.9982 13.9684C15.006 14.2223 14.9168 14.4697 14.7488 14.6603C14.5807 14.8509 14.3465 14.9703 14.0935 14.9944C13.8406 15.0185 13.588 14.9454 13.387 14.79L13.293 14.707L11.293 12.707C11.1376 12.5515 11.0378 12.349 11.009 12.131L11 12V8.00001C11 7.73479 11.1054 7.48044 11.2929 7.2929C11.4804 7.10537 11.7348 7.00001 12 7.00001Z" fill="white"/>
</g>
</svg>
