<svg width="48" height="48" viewBox="0 0 48 48" fill="none" xmlns="http://www.w3.org/2000/svg">
<path d="M0 6C0 4.93913 0.421427 3.92172 1.17157 3.17157C1.92172 2.42143 2.93913 2 4 2H24C25.0609 2 26.0783 2.42143 26.8284 3.17157C27.5786 3.92172 28 4.93913 28 6V8C28 8.53043 27.7893 9.03914 27.4142 9.41421C27.0391 9.78929 26.5304 10 26 10C25.4696 10 24.9609 9.78929 24.5858 9.41421C24.2107 9.03914 24 8.53043 24 8V6H16V30H18C18.5304 30 19.0391 30.2107 19.4142 30.5858C19.7893 30.9609 20 31.4696 20 32C20 32.5304 19.7893 33.0391 19.4142 33.4142C19.0391 33.7893 18.5304 34 18 34H10C9.46957 34 8.96086 33.7893 8.58579 33.4142C8.21071 33.0391 8 32.5304 8 32C8 31.4696 8.21071 30.9609 8.58579 30.5858C8.96086 30.2107 9.46957 30 10 30H12V6H4V8C4 8.53043 3.78929 9.03914 3.41421 9.41421C3.03914 9.78929 2.53043 10 2 10C1.46957 10 0.96086 9.78929 0.585787 9.41421C0.210714 9.03914 0 8.53043 0 8V6Z" fill="white"/>
<path d="M0 6C0 4.93913 0.421427 3.92172 1.17157 3.17157C1.92172 2.42143 2.93913 2 4 2H24C25.0609 2 26.0783 2.42143 26.8284 3.17157C27.5786 3.92172 28 4.93913 28 6V8C28 8.53043 27.7893 9.03914 27.4142 9.41421C27.0391 9.78929 26.5304 10 26 10C25.4696 10 24.9609 9.78929 24.5858 9.41421C24.2107 9.03914 24 8.53043 24 8V6H16V30H18C18.5304 30 19.0391 30.2107 19.4142 30.5858C19.7893 30.9609 20 31.4696 20 32C20 32.5304 19.7893 33.0391 19.4142 33.4142C19.0391 33.7893 18.5304 34 18 34H10C9.46957 34 8.96086 33.7893 8.58579 33.4142C8.21071 33.0391 8 32.5304 8 32C8 31.4696 8.21071 30.9609 8.58579 30.5858C8.96086 30.2107 9.46957 30 10 30H12V6H4V8C4 8.53043 3.78929 9.03914 3.41421 9.41421C3.03914 9.78929 2.53043 10 2 10C1.46957 10 0.96086 9.78929 0.585787 9.41421C0.210714 9.03914 0 8.53043 0 8V6Z" fill="white"/>
<path d="M20 18C20 16.9391 20.4214 15.9217 21.1716 15.1716C21.9217 14.4214 22.9391 14 24 14H44C45.0609 14 46.0783 14.4214 46.8284 15.1716C47.5786 15.9217 48 16.9391 48 18V20C48 20.5304 47.7893 21.0391 47.4142 21.4142C47.0391 21.7893 46.5304 22 46 22C45.4696 22 44.9609 21.7893 44.5858 21.4142C44.2107 21.0391 44 20.5304 44 20V18H36V42H38C38.5304 42 39.0391 42.2107 39.4142 42.5858C39.7893 42.9609 40 43.4696 40 44C40 44.5304 39.7893 45.0391 39.4142 45.4142C39.0391 45.7893 38.5304 46 38 46H30C29.4696 46 28.9609 45.7893 28.5858 45.4142C28.2107 45.0391 28 44.5304 28 44C28 43.4696 28.2107 42.9609 28.5858 42.5858C28.9609 42.2107 29.4696 42 30 42H32V18H24V20C24 20.5304 23.7893 21.0391 23.4142 21.4142C23.0391 21.7893 22.5304 22 22 22C21.4696 22 20.9609 21.7893 20.5858 21.4142C20.2107 21.0391 20 20.5304 20 20V18Z" fill="white"/>
<path d="M20 18C20 16.9391 20.4214 15.9217 21.1716 15.1716C21.9217 14.4214 22.9391 14 24 14H44C45.0609 14 46.0783 14.4214 46.8284 15.1716C47.5786 15.9217 48 16.9391 48 18V20C48 20.5304 47.7893 21.0391 47.4142 21.4142C47.0391 21.7893 46.5304 22 46 22C45.4696 22 44.9609 21.7893 44.5858 21.4142C44.2107 21.0391 44 20.5304 44 20V18H36V42H38C38.5304 42 39.0391 42.2107 39.4142 42.5858C39.7893 42.9609 40 43.4696 40 44C40 44.5304 39.7893 45.0391 39.4142 45.4142C39.0391 45.7893 38.5304 46 38 46H30C29.4696 46 28.9609 45.7893 28.5858 45.4142C28.2107 45.0391 28 44.5304 28 44C28 43.4696 28.2107 42.9609 28.5858 42.5858C28.9609 42.2107 29.4696 42 30 42H32V18H24V20C24 20.5304 23.7893 21.0391 23.4142 21.4142C23.0391 21.7893 22.5304 22 22 22C21.4696 22 20.9609 21.7893 20.5858 21.4142C20.2107 21.0391 20 20.5304 20 20V18Z" fill="white"/>
</svg>
