<svg width="50" height="50" viewBox="0 0 50 50" fill="none" xmlns="http://www.w3.org/2000/svg">
<rect width="50" height="50" rx="25" fill="#F7DC60"/>
<path d="M24.9805 16.875C26.6932 16.875 28.2772 17.2083 29.7327 17.875C31.1881 18.5416 32.3387 19.4482 33.1845 20.5945C34.0302 21.7409 34.4531 22.9913 34.4531 24.3458C34.4531 25.7002 34.0302 26.9524 33.1845 28.1023C32.3387 29.2522 31.1898 30.1605 29.7379 30.8271C28.286 31.4938 26.7002 31.8271 24.9805 31.8271C24.4378 31.8271 23.8774 31.7883 23.2995 31.7107C20.7904 33.4532 19.4548 34.335 19.2927 34.3562C19.2151 34.3844 19.1411 34.3809 19.0706 34.3456C19.0424 34.3245 19.0213 34.2962 19.0072 34.2609C18.9931 34.2257 18.9861 34.1939 18.9861 34.1657V34.1234C19.0284 33.8482 19.349 32.7019 19.9481 30.6843C18.5878 30.0071 17.5077 29.1094 16.7078 27.9912C15.9078 26.8731 15.5078 25.6579 15.5078 24.3458C15.5078 22.9913 15.9307 21.7409 16.7765 20.5945C17.6222 19.4482 18.7728 18.5416 20.2283 17.875C21.6837 17.2083 23.2678 16.875 24.9805 16.875Z" fill="#382A29"/>
</svg>
